<svg version="1.1" xmlns="http://www.w3.org/2000/svg" viewBox="0 0 2717.624999999999 2050.7249959309906" width="5435.249999999998" height="4101.449991861981">
  <!-- svg-source:excalidraw -->
  
  <defs>
    <style class="style-fonts">
      @font-face {
        font-family: "Virgil";
        src: url("https://excalidraw.com/Virgil.woff2");
      }
      @font-face {
        font-family: "Cascadia";
        src: url("https://excalidraw.com/Cascadia.woff2");
      }
      @font-face {
        font-family: "Assistant";
        src: url("https://excalidraw.com/Assistant-Regular.woff2");
      }
    </style>
    
  </defs>
  <rect x="0" y="0" width="2717.624999999999" height="2050.7249959309906" fill="#ffffff"></rect><g transform="translate(88.33333333333348 438.22499593099064) rotate(0 69.64197540283203 22.5)"><text x="0" y="0" font-family="Virgil, Segoe UI Emoji" font-size="36px" fill="#1971c2" text-anchor="start" style="white-space: pre;" direction="ltr" dominant-baseline="text-before-edge">Persona</text></g><g transform="translate(73.33333333333348 618.8916625976574) rotate(0 133.59593200683594 22.5)"><text x="0" y="0" font-family="Virgil, Segoe UI Emoji" font-size="36px" fill="#f08c00" text-anchor="start" style="white-space: pre;" direction="ltr" dominant-baseline="text-before-edge">Activité (epics)</text></g><g transform="translate(83.66666666666674 845.2249959309904) rotate(0 110.4299545288086 22.5)"><text x="0" y="0" font-family="Virgil, Segoe UI Emoji" font-size="36px" fill="#2f9e44" text-anchor="start" style="white-space: pre;" direction="ltr" dominant-baseline="text-before-edge">User stories</text></g><g transform="translate(10 1627.5583292643241) rotate(0 287.15386962890625 157.5)"><text x="0" y="0" font-family="Virgil, Segoe UI Emoji" font-size="36px" fill="#1e1e1e" text-anchor="start" style="white-space: pre;" direction="ltr" dominant-baseline="text-before-edge">MVP </text><text x="0" y="45" font-family="Virgil, Segoe UI Emoji" font-size="36px" fill="#1e1e1e" text-anchor="start" style="white-space: pre;" direction="ltr" dominant-baseline="text-before-edge">(Minimum Vuable Product) : V1</text><text x="0" y="90" font-family="Virgil, Segoe UI Emoji" font-size="36px" fill="#1e1e1e" text-anchor="start" style="white-space: pre;" direction="ltr" dominant-baseline="text-before-edge">fournir le moins d'effort possible</text><text x="0" y="135" font-family="Virgil, Segoe UI Emoji" font-size="36px" fill="#1e1e1e" text-anchor="start" style="white-space: pre;" direction="ltr" dominant-baseline="text-before-edge">tout en essayant d'apporter </text><text x="0" y="180" font-family="Virgil, Segoe UI Emoji" font-size="36px" fill="#1e1e1e" text-anchor="start" style="white-space: pre;" direction="ltr" dominant-baseline="text-before-edge">le plus de valeur possible,</text><text x="0" y="225" font-family="Virgil, Segoe UI Emoji" font-size="36px" fill="#1e1e1e" text-anchor="start" style="white-space: pre;" direction="ltr" dominant-baseline="text-before-edge">le tout dans une itération)</text><text x="0" y="270" font-family="Virgil, Segoe UI Emoji" font-size="36px" fill="#1e1e1e" text-anchor="start" style="white-space: pre;" direction="ltr" dominant-baseline="text-before-edge"></text></g><g transform="translate(17.382578531901117 1995.7249959309906) rotate(0 22.121994018554688 22.5)"><text x="0" y="0" font-family="Virgil, Segoe UI Emoji" font-size="36px" fill="#1e1e1e" text-anchor="start" style="white-space: pre;" direction="ltr" dominant-baseline="text-before-edge">V2</text></g><g transform="translate(730.7500000000002 182.0833333333344) rotate(0 154.55682373046875 22.5)"><text x="0" y="0" font-family="Virgil, Segoe UI Emoji" font-size="36px" fill="#e03131" text-anchor="start" style="white-space: pre;" direction="ltr" dominant-baseline="text-before-edge">STORY MAPPING</text></g><g stroke-linecap="round" transform="translate(2508.874999999999 10) rotate(0 99.375 90)"><path d="M32 0 C70.9 -0.79, 108.91 -0.44, 166.75 0 M32 0 C75.16 -0.3, 119.33 -0.77, 166.75 0 M166.75 0 C190.04 1.04, 197.16 12.13, 198.75 32 M166.75 0 C189.34 -0.05, 197.71 11.06, 198.75 32 M198.75 32 C197.81 72.23, 200.33 111.47, 198.75 148 M198.75 32 C199.23 65.81, 198.88 101.36, 198.75 148 M198.75 148 C197.2 169.74, 189.51 178.29, 166.75 180 M198.75 148 C197.93 167.92, 187.82 179.13, 166.75 180 M166.75 180 C118.72 180.42, 71.91 178.16, 32 180 M166.75 180 C117.76 179.28, 69.11 181.13, 32 180 M32 180 C9.64 178.64, -1.09 170.91, 0 148 M32 180 C8.37 181.63, -1.9 169.83, 0 148 M0 148 C-0.67 104.23, 1.72 64.31, 0 32 M0 148 C0.85 102.24, -0.39 57.1, 0 32 M0 32 C-1.47 9.96, 9.3 -1.44, 32 0 M0 32 C0.44 12.09, 12.83 -0.24, 32 0" stroke="#1e1e1e" stroke-width="2" fill="none"></path></g><g stroke-linecap="round" transform="translate(639.8131357828777 396.5916646321625) rotate(0 145 37.5)"><path d="M18.75 0 C109.3 1.12, 200.44 1.12, 271.25 0 M18.75 0 C75.8 1.59, 133.9 1.45, 271.25 0 M271.25 0 C284.27 -1.02, 291.92 4.99, 290 18.75 M271.25 0 C282.12 -0.3, 291.48 8.25, 290 18.75 M290 18.75 C291.22 31.02, 287.87 40.5, 290 56.25 M290 18.75 C289 33.06, 289.98 47.84, 290 56.25 M290 56.25 C289.47 68, 283.74 73.11, 271.25 75 M290 56.25 C289.47 70.75, 282.62 75.08, 271.25 75 M271.25 75 C215.5 74.2, 159.81 74.8, 18.75 75 M271.25 75 C211.19 75.54, 150.54 74.58, 18.75 75 M18.75 75 C4.4 73.27, 1.88 67.69, 0 56.25 M18.75 75 C4.36 72.78, -0.08 68.06, 0 56.25 M0 56.25 C-2 43.66, -1.17 35.16, 0 18.75 M0 56.25 C-0.78 43.38, -0.99 28.8, 0 18.75 M0 18.75 C1.86 6.05, 6.88 1.3, 18.75 0 M0 18.75 C0.31 5.81, 6.1 -2.25, 18.75 0" stroke="#1971c2" stroke-width="2" fill="none"></path></g><g stroke-linecap="round" transform="translate(635.8131357828779 485.0916646321625) rotate(0 137 39)"><path d="M19.5 0 C82.98 -0.81, 143.67 -1.59, 254.5 0 M19.5 0 C102.18 1.29, 183.8 0.51, 254.5 0 M254.5 0 C269.49 -1.57, 272.06 5.34, 274 19.5 M254.5 0 C266.9 0.92, 273.59 7.44, 274 19.5 M274 19.5 C273.89 35.45, 272.67 48.69, 274 58.5 M274 19.5 C273.34 31.46, 274.44 45.04, 274 58.5 M274 58.5 C275.18 69.93, 268.73 76.37, 254.5 78 M274 58.5 C274.82 73.76, 269.44 79.46, 254.5 78 M254.5 78 C200.2 78.35, 149.04 79.04, 19.5 78 M254.5 78 C187.37 77.34, 121.68 77.3, 19.5 78 M19.5 78 C7.96 78.07, 1.74 69.83, 0 58.5 M19.5 78 C7.84 75.82, -2.14 69.59, 0 58.5 M0 58.5 C0.57 45.56, 0.17 32.82, 0 19.5 M0 58.5 C0.86 45.13, -0.63 29.69, 0 19.5 M0 19.5 C-0.21 6.47, 5.81 1.01, 19.5 0 M0 19.5 C2.19 6.08, 6.49 -1.16, 19.5 0" stroke="#f08c00" stroke-width="2" fill="none"></path></g><g stroke-linecap="round" transform="translate(603.8131357828779 811.0916646321625) rotate(0 145 37.5)"><path d="M18.75 0 C98.52 2.02, 177.97 0.76, 271.25 0 M18.75 0 C85.39 0.39, 150.52 0.17, 271.25 0 M271.25 0 C283.63 -0.29, 289.74 7.39, 290 18.75 M271.25 0 C282.05 2.13, 291.94 4.46, 290 18.75 M290 18.75 C290.94 30.42, 289.39 38.43, 290 56.25 M290 18.75 C289.95 27.36, 289.67 37.1, 290 56.25 M290 56.25 C289.52 67.68, 284.41 76.24, 271.25 75 M290 56.25 C289.19 68.06, 284.73 74.24, 271.25 75 M271.25 75 C179.16 73.39, 87.89 72.34, 18.75 75 M271.25 75 C216.38 74.81, 162.17 75.01, 18.75 75 M18.75 75 C6.95 73.87, -0.1 70.12, 0 56.25 M18.75 75 C5.18 74.4, -1.27 66.64, 0 56.25 M0 56.25 C0.95 46.33, -0.95 39.11, 0 18.75 M0 56.25 C0.65 40.73, 1.02 26.56, 0 18.75 M0 18.75 C0.88 4.47, 8.21 -1.8, 18.75 0 M0 18.75 C-0.2 7.76, 5.94 -0.87, 18.75 0" stroke="#2f9e44" stroke-width="2" fill="none"></path></g><g transform="translate(621.9722239176435 823.5916646321625) rotate(0 126.84091186523438 25)"><text x="126.84091186523438" y="0" font-family="Virgil, Segoe UI Emoji" font-size="20px" fill="#1e1e1e" text-anchor="middle" style="white-space: pre;" direction="ltr" dominant-baseline="text-before-edge"> Remplir un formulaire de </text><text x="126.84091186523438" y="25" font-family="Virgil, Segoe UI Emoji" font-size="20px" fill="#1e1e1e" text-anchor="middle" style="white-space: pre;" direction="ltr" dominant-baseline="text-before-edge">saisi de contenu</text></g><g stroke-linecap="round" transform="translate(591.8131357828779 1058.0916646321625) rotate(0 145 37.5)"><path d="M18.75 0 C110.53 0.87, 203.71 2.19, 271.25 0 M18.75 0 C75.8 0.73, 132.52 -0.01, 271.25 0 M271.25 0 C283.42 0.21, 290.72 5.35, 290 18.75 M271.25 0 C281.93 2.02, 289.25 7.16, 290 18.75 M290 18.75 C291.01 32.2, 288.93 44.42, 290 56.25 M290 18.75 C289.97 31.61, 289.18 42.74, 290 56.25 M290 56.25 C288.57 68.43, 284.71 73.96, 271.25 75 M290 56.25 C289.69 70.54, 285.39 76.52, 271.25 75 M271.25 75 C184.94 71.44, 100.32 72.33, 18.75 75 M271.25 75 C184.76 74.67, 96.83 73.7, 18.75 75 M18.75 75 C4.81 75.33, 0.82 70.27, 0 56.25 M18.75 75 C5.4 77.2, -2.19 70.96, 0 56.25 M0 56.25 C-1.88 44.81, 0.37 31.9, 0 18.75 M0 56.25 C0.52 46.07, 0.67 33.71, 0 18.75 M0 18.75 C1.91 8.04, 4.44 0.28, 18.75 0 M0 18.75 C-1.06 4.65, 4.1 -1.06, 18.75 0" stroke="#2f9e44" stroke-width="2" fill="none"></path></g><g transform="translate(763.7108637491863 421.5916646321625) rotate(0 21.102272033691406 12.5)"><text x="21.102272033691406" y="0" font-family="Virgil, Segoe UI Emoji" font-size="20px" fill="#1e1e1e" text-anchor="middle" style="white-space: pre;" direction="ltr" dominant-baseline="text-before-edge">Ariel</text></g><g stroke-linecap="round" transform="translate(634.8131357828779 672.5250142415375) rotate(0 135.5 40)"><path d="M20 0 C82.14 1.88, 145.61 1.81, 251 0 M20 0 C71.63 -0.49, 123.31 -0.53, 251 0 M251 0 C263.21 -0.83, 270.7 4.96, 271 20 M251 0 C263.19 1.68, 270.12 5.56, 271 20 M271 20 C271.52 31.37, 269.82 42.59, 271 60 M271 20 C271.87 27.98, 270.61 36.2, 271 60 M271 60 C272.6 74.13, 266.17 81.09, 251 80 M271 60 C271.2 71.23, 263.45 78.73, 251 80 M251 80 C176.02 81.66, 102.13 81.63, 20 80 M251 80 C159.52 81.11, 69.31 81.32, 20 80 M20 80 C8.27 80.46, 0.07 72.16, 0 60 M20 80 C6.43 80.82, 1.72 75.17, 0 60 M0 60 C0.19 51.62, 1.65 43.98, 0 20 M0 60 C0.09 48.73, -0.38 34.9, 0 20 M0 20 C-0.74 5.13, 7.76 0.63, 20 0 M0 20 C-0.5 7.17, 5.9 -2.21, 20 0" stroke="#f08c00" stroke-width="2" fill="none"></path></g><g transform="translate(645.6540476481123 511.5916646321625) rotate(0 127.15908813476562 12.5)"><text x="127.15908813476562" y="0" font-family="Virgil, Segoe UI Emoji" font-size="20px" fill="#1e1e1e" text-anchor="middle" style="white-space: pre;" direction="ltr" dominant-baseline="text-before-edge">Publier du contenu interne</text></g><g transform="translate(654.3244959513349 687.5250142415375) rotate(0 115.98863983154297 25)"><text x="115.98863983154297" y="0" font-family="Virgil, Segoe UI Emoji" font-size="20px" fill="#1e1e1e" text-anchor="middle" style="white-space: pre;" direction="ltr" dominant-baseline="text-before-edge">Republier des contenus </text><text x="115.98863983154297" y="25" font-family="Virgil, Segoe UI Emoji" font-size="20px" fill="#1e1e1e" text-anchor="middle" style="white-space: pre;" direction="ltr" dominant-baseline="text-before-edge">externes (partenaires)</text></g><g transform="translate(643.7108637491865 1083.0916646321625) rotate(0 93.1022720336914 12.5)"><text x="93.1022720336914" y="0" font-family="Virgil, Segoe UI Emoji" font-size="20px" fill="#1e1e1e" text-anchor="middle" style="white-space: pre;" direction="ltr" dominant-baseline="text-before-edge">Ajouter des vidéos</text></g><g stroke-linecap="round" transform="translate(590.8131357828779 935.5250142415375) rotate(0 145 37.5)"><path d="M18.75 0 C74.9 -0.52, 134.33 -0.6, 271.25 0 M18.75 0 C79.96 2.18, 140.22 1.94, 271.25 0 M271.25 0 C285.47 -1.84, 288.66 8.07, 290 18.75 M271.25 0 C283.68 -0.4, 288.19 5.11, 290 18.75 M290 18.75 C288.41 31.11, 288.89 42.48, 290 56.25 M290 18.75 C290.53 28.29, 289.12 38.58, 290 56.25 M290 56.25 C288.35 68.83, 282.29 73.95, 271.25 75 M290 56.25 C289.8 67.87, 283.36 75, 271.25 75 M271.25 75 C178.49 74.89, 88.14 74.84, 18.75 75 M271.25 75 C217.13 75.26, 163.1 76.42, 18.75 75 M18.75 75 C6.63 73.74, -0.44 68.92, 0 56.25 M18.75 75 C6.18 75.38, -0.32 68.59, 0 56.25 M0 56.25 C-0.97 46.16, 1.36 38.55, 0 18.75 M0 56.25 C-0.74 48.12, 0.63 38.89, 0 18.75 M0 18.75 C-1.11 4.26, 7 -0.8, 18.75 0 M0 18.75 C0.76 5.25, 8.2 2.17, 18.75 0" stroke="#2f9e44" stroke-width="2" fill="none"></path></g><g transform="translate(650.3017756144209 960.5250142415375) rotate(0 85.51136016845703 12.5)"><text x="85.51136016845703" y="0" font-family="Virgil, Segoe UI Emoji" font-size="20px" fill="#1e1e1e" text-anchor="middle" style="white-space: pre;" direction="ltr" dominant-baseline="text-before-edge">Ajouter du texte</text></g><g stroke-linecap="round" transform="translate(588.8131357828779 1182.5250142415375) rotate(0 145 37.5)"><path d="M18.75 0 C71.25 1.65, 126.42 1.9, 271.25 0 M18.75 0 C80.42 -0.31, 141.48 -0.91, 271.25 0 M271.25 0 C284.15 -1.09, 289.1 4.38, 290 18.75 M271.25 0 C285.65 -0.39, 288.77 5.88, 290 18.75 M290 18.75 C289.86 28.66, 288.85 37.31, 290 56.25 M290 18.75 C290.43 29.1, 289.8 41.37, 290 56.25 M290 56.25 C290.29 70.3, 284.53 73.42, 271.25 75 M290 56.25 C291.95 71, 283.36 76.03, 271.25 75 M271.25 75 C190.76 75.64, 110.58 74.8, 18.75 75 M271.25 75 C216.31 74.27, 161.73 72.92, 18.75 75 M18.75 75 C4.47 75.55, 0.33 67.36, 0 56.25 M18.75 75 C5.34 74.3, 1.51 66.51, 0 56.25 M0 56.25 C-1.85 48.18, 0.68 37.55, 0 18.75 M0 56.25 C-0.63 42.68, 0.83 28.72, 0 18.75 M0 18.75 C-0.88 5.58, 5.04 1.87, 18.75 0 M0 18.75 C0.77 5.65, 7.64 -0.39, 18.75 0" stroke="#2f9e44" stroke-width="2" fill="none"></path></g><g transform="translate(646.0404078165693 1207.5250142415375) rotate(0 87.7727279663086 12.5)"><text x="87.7727279663086" y="0" font-family="Virgil, Segoe UI Emoji" font-size="20px" fill="#1e1e1e" text-anchor="middle" style="white-space: pre;" direction="ltr" dominant-baseline="text-before-edge">Ajouter une image</text></g><g stroke-linecap="round" transform="translate(997.8131357828779 392.5250142415375) rotate(0 145 37.5)"><path d="M18.75 0 C106.87 2.26, 192.5 -0.1, 271.25 0 M18.75 0 C103.8 -1.27, 187.31 -0.27, 271.25 0 M271.25 0 C285.44 -1.51, 291.62 4.44, 290 18.75 M271.25 0 C284.95 0.65, 290.7 6.81, 290 18.75 M290 18.75 C291.48 32.5, 289.9 42.93, 290 56.25 M290 18.75 C289.57 31.59, 289.96 41.6, 290 56.25 M290 56.25 C288.84 69.18, 285.23 75.19, 271.25 75 M290 56.25 C290.89 68.61, 283.9 77.24, 271.25 75 M271.25 75 C207.98 73.56, 145.23 73.73, 18.75 75 M271.25 75 C207.94 72.39, 144.42 72.7, 18.75 75 M18.75 75 C8.03 73.07, 0.5 69.16, 0 56.25 M18.75 75 C6.02 75.71, 2.22 67.14, 0 56.25 M0 56.25 C0.59 43.61, 0.4 27.55, 0 18.75 M0 56.25 C0.23 46.49, -0.76 37.54, 0 18.75 M0 18.75 C1.31 4.74, 4.82 0.65, 18.75 0 M0 18.75 C0.51 6.19, 6.46 -0.45, 18.75 0" stroke="#1971c2" stroke-width="2" fill="none"></path></g><g transform="translate(1106.3813158671064 417.5250142415375) rotate(0 36.431819915771484 12.5)"><text x="36.431819915771484" y="0" font-family="Virgil, Segoe UI Emoji" font-size="20px" fill="#1e1e1e" text-anchor="middle" style="white-space: pre;" direction="ltr" dominant-baseline="text-before-edge">Clifford</text></g><g stroke-linecap="round" transform="translate(584.8131357828779 1293.5250142415375) rotate(0 145 37.5)"><path d="M18.75 0 C108.32 -1.25, 201.54 0.83, 271.25 0 M18.75 0 C94.69 -1.71, 169.53 -1.69, 271.25 0 M271.25 0 C282.41 0.06, 291.41 4.63, 290 18.75 M271.25 0 C285.59 1.19, 290.43 4.51, 290 18.75 M290 18.75 C288.56 28.01, 289.06 39.27, 290 56.25 M290 18.75 C289.39 29.36, 289.27 41.68, 290 56.25 M290 56.25 C291.36 70.51, 282.51 76.48, 271.25 75 M290 56.25 C290.13 68.92, 282.48 75.22, 271.25 75 M271.25 75 C176.27 75.74, 79.63 75.45, 18.75 75 M271.25 75 C173.85 75.19, 75.12 75.67, 18.75 75 M18.75 75 C4.53 73.75, -0.35 66.76, 0 56.25 M18.75 75 C6.35 74.6, 1.8 68.66, 0 56.25 M0 56.25 C0.42 45.04, -1.65 36.03, 0 18.75 M0 56.25 C1.18 45.17, 0.47 32.17, 0 18.75 M0 18.75 C-1.33 7.08, 5.29 1.87, 18.75 0 M0 18.75 C-0.47 4.15, 4.99 1.93, 18.75 0" stroke="#2f9e44" stroke-width="2" fill="none"></path></g><g transform="translate(612.9381357828779 1318.5250142415375) rotate(0 116.875 12.5)"><text x="116.875" y="0" font-family="Virgil, Segoe UI Emoji" font-size="20px" fill="#1e1e1e" text-anchor="middle" style="white-space: pre;" direction="ltr" dominant-baseline="text-before-edge">Notifier les utilisateurs</text></g><g stroke-linecap="round" transform="translate(996.8131357828779 750.5250142415375) rotate(0 145 37.5)"><path d="M18.75 0 C79.79 0.49, 141.38 -1.53, 271.25 0 M18.75 0 C105.92 -1.92, 194.91 -1.68, 271.25 0 M271.25 0 C285.62 -0.66, 289.4 4.78, 290 18.75 M271.25 0 C282.6 0, 287.79 6.64, 290 18.75 M290 18.75 C290.48 31.14, 287.9 40.82, 290 56.25 M290 18.75 C290.56 28.66, 289.69 38.27, 290 56.25 M290 56.25 C289.61 68.07, 282.81 75.7, 271.25 75 M290 56.25 C289.25 69.92, 284.85 75.53, 271.25 75 M271.25 75 C198.86 73.32, 125.28 73.3, 18.75 75 M271.25 75 C195.77 75.72, 121.03 75.89, 18.75 75 M18.75 75 C4.6 73.88, -0.59 66.91, 0 56.25 M18.75 75 C5.4 76.6, -0.74 69.33, 0 56.25 M0 56.25 C-1.07 47.93, 1.78 40.33, 0 18.75 M0 56.25 C-0.45 48.44, 0.67 41.56, 0 18.75 M0 18.75 C-0.42 6.02, 6.41 -0.4, 18.75 0 M0 18.75 C1.52 4.12, 5.47 -0.92, 18.75 0" stroke="#2f9e44" stroke-width="2" fill="none"></path></g><g transform="translate(1050.233591715495 775.5250142415375) rotate(0 91.57954406738281 12.5)"><text x="91.57954406738281" y="0" font-family="Virgil, Segoe UI Emoji" font-size="20px" fill="#1e1e1e" text-anchor="middle" style="white-space: pre;" direction="ltr" dominant-baseline="text-before-edge">Visiter l'application</text></g><g stroke-linecap="round" transform="translate(1013.8131357828779 501.0250142415375) rotate(0 137 39)"><path d="M19.5 0 C75.25 -0.72, 129.27 -1.79, 254.5 0 M19.5 0 C103.71 1.99, 187.42 1.49, 254.5 0 M254.5 0 C265.67 1.37, 273.83 5.69, 274 19.5 M254.5 0 C266.74 -2.07, 275.85 7.66, 274 19.5 M274 19.5 C275.83 30.3, 274.42 38.13, 274 58.5 M274 19.5 C275.16 27.9, 273.56 35.68, 274 58.5 M274 58.5 C275.71 70.86, 269.36 77.08, 254.5 78 M274 58.5 C273.76 69.76, 266.51 77.75, 254.5 78 M254.5 78 C189.77 74.83, 120.89 74.96, 19.5 78 M254.5 78 C185.03 77.61, 116.56 78.27, 19.5 78 M19.5 78 C6.49 80, -1.74 71.38, 0 58.5 M19.5 78 C7.62 78.74, -1.56 71.43, 0 58.5 M0 58.5 C1.99 50.42, -0.12 42.9, 0 19.5 M0 58.5 C0.01 45.64, 0.7 33.83, 0 19.5 M0 19.5 C0.52 6.11, 8.12 -1.35, 19.5 0 M0 19.5 C2.24 7.76, 5.37 2.19, 19.5 0" stroke="#f08c00" stroke-width="2" fill="none"></path></g><g transform="translate(1059.2676798502607 527.5250142415375) rotate(0 91.54545593261719 12.5)"><text x="91.54545593261719" y="0" font-family="Virgil, Segoe UI Emoji" font-size="20px" fill="#1e1e1e" text-anchor="middle" style="white-space: pre;" direction="ltr" dominant-baseline="text-before-edge">Acheter un produit</text></g><g stroke-linecap="round" transform="translate(1735.813135782878 393.5250142415375) rotate(0 145 37.5)"><path d="M18.75 0 C86.21 -0.51, 155.02 0.71, 271.25 0 M18.75 0 C103.21 -0.03, 187.15 -0.03, 271.25 0 M271.25 0 C281.97 0.56, 289.09 5.74, 290 18.75 M271.25 0 C284.28 -0.75, 289.75 4.92, 290 18.75 M290 18.75 C291.04 26.51, 288.56 37.54, 290 56.25 M290 18.75 C290.16 27.88, 288.91 39.27, 290 56.25 M290 56.25 C289.64 70.7, 284.39 73.82, 271.25 75 M290 56.25 C292 66.99, 284.17 75.41, 271.25 75 M271.25 75 C196.87 72.24, 122.19 75.05, 18.75 75 M271.25 75 C191.75 77.35, 113.34 77.22, 18.75 75 M18.75 75 C7.51 75.47, -0.48 66.96, 0 56.25 M18.75 75 C4.31 76.53, 1.02 66.64, 0 56.25 M0 56.25 C-0.21 47.52, 1.96 39.03, 0 18.75 M0 56.25 C0.24 47.72, 0.34 37.79, 0 18.75 M0 18.75 C1.89 4.34, 4.89 -1.28, 18.75 0 M0 18.75 C2.08 7.93, 4.34 -0.43, 18.75 0" stroke="#1971c2" stroke-width="2" fill="none"></path></g><g transform="translate(1794.449495951335 418.5250142415375) rotate(0 86.36363983154297 12.5)"><text x="86.36363983154297" y="0" font-family="Virgil, Segoe UI Emoji" font-size="20px" fill="#1e1e1e" text-anchor="middle" style="white-space: pre;" direction="ltr" dominant-baseline="text-before-edge">Marketing : Didier</text></g><g stroke-linecap="round" transform="translate(1011.8131357828779 609.0250142415375) rotate(0 137 39)"><path d="M19.5 0 C98.93 1.52, 180.46 3.15, 254.5 0 M19.5 0 C68.96 0.15, 119 0.08, 254.5 0 M254.5 0 C266.49 -0.89, 272.27 5.23, 274 19.5 M254.5 0 C267.13 -1.84, 274.97 6.84, 274 19.5 M274 19.5 C273.75 27.13, 274.7 35.44, 274 58.5 M274 19.5 C273.62 33.48, 273.39 48.17, 274 58.5 M274 58.5 C273.39 71.07, 267.06 78.11, 254.5 78 M274 58.5 C272.3 73.09, 267.63 78.06, 254.5 78 M254.5 78 C172 76.18, 92.71 77.84, 19.5 78 M254.5 78 C200.61 77.2, 145.7 76.14, 19.5 78 M19.5 78 C8.16 79.91, -0.8 73.08, 0 58.5 M19.5 78 C8.54 76.47, 1.48 72, 0 58.5 M0 58.5 C-1.5 47.79, 0.8 34.49, 0 19.5 M0 58.5 C-0.39 43.08, 1.04 28.25, 0 19.5 M0 19.5 C-1.3 5.36, 4.96 -1.28, 19.5 0 M0 19.5 C-0.37 4.23, 6.76 -1.37, 19.5 0" stroke="#f08c00" stroke-width="2" fill="none"></path></g><g transform="translate(1028.3358637491865 623.0250142415375) rotate(0 120.4772720336914 25)"><text x="120.4772720336914" y="0" font-family="Virgil, Segoe UI Emoji" font-size="20px" fill="#1e1e1e" text-anchor="middle" style="white-space: pre;" direction="ltr" dominant-baseline="text-before-edge">S'informer des nouvelles </text><text x="120.4772720336914" y="25" font-family="Virgil, Segoe UI Emoji" font-size="20px" fill="#1e1e1e" text-anchor="middle" style="white-space: pre;" direction="ltr" dominant-baseline="text-before-edge">tendances</text></g><g stroke-linecap="round" transform="translate(993.8131357828779 853.5250142415375) rotate(0 145 37.5)"><path d="M18.75 0 C92.52 -0.62, 169.34 -1.47, 271.25 0 M18.75 0 C78.24 -1.22, 137.29 -1.77, 271.25 0 M271.25 0 C283.3 -1.92, 288.3 7.55, 290 18.75 M271.25 0 C283.18 -1.26, 287.72 7.93, 290 18.75 M290 18.75 C291.57 29.42, 290.53 34.38, 290 56.25 M290 18.75 C290.69 32.93, 289.62 44.86, 290 56.25 M290 56.25 C291.61 66.89, 282.71 73.25, 271.25 75 M290 56.25 C289.62 67.49, 281.54 76.71, 271.25 75 M271.25 75 C210.14 73.45, 148.39 73.52, 18.75 75 M271.25 75 C190.44 74.6, 110.8 74.45, 18.75 75 M18.75 75 C7.31 75.71, 0.63 69.61, 0 56.25 M18.75 75 C5.64 75.17, -0.58 69.51, 0 56.25 M0 56.25 C-0.4 44.05, -1.03 29.6, 0 18.75 M0 56.25 C0.88 47.34, 1.13 38.21, 0 18.75 M0 18.75 C-0.88 4.34, 6.61 1.41, 18.75 0 M0 18.75 C1.3 5.7, 5.22 1.27, 18.75 0" stroke="#2f9e44" stroke-width="2" fill="none"></path></g><g transform="translate(1013.6426798502607 866.0250142415375) rotate(0 125.17045593261719 25)"><text x="125.17045593261719" y="0" font-family="Virgil, Segoe UI Emoji" font-size="20px" fill="#1e1e1e" text-anchor="middle" style="white-space: pre;" direction="ltr" dominant-baseline="text-before-edge">(3) Solliciter un coaching </text><text x="125.17045593261719" y="25" font-family="Virgil, Segoe UI Emoji" font-size="20px" fill="#1e1e1e" text-anchor="middle" style="white-space: pre;" direction="ltr" dominant-baseline="text-before-edge">personnalisé</text></g><g stroke-linecap="round" transform="translate(992.8131357828779 945.5250142415375) rotate(0 145 46.5)"><path d="M23.25 0 C114.58 1.22, 209.57 1.49, 266.75 0 M23.25 0 C106.98 -0.55, 191.38 -1.75, 266.75 0 M266.75 0 C280.33 -0.89, 290.67 7.99, 290 23.25 M266.75 0 C283.99 0.41, 287.91 6.65, 290 23.25 M290 23.25 C290.08 43.09, 289.39 59.03, 290 69.75 M290 23.25 C290.91 40.05, 289.35 56.33, 290 69.75 M290 69.75 C291.77 84.59, 280.77 93.22, 266.75 93 M290 69.75 C290.01 84.56, 282.39 91.64, 266.75 93 M266.75 93 C194.08 92.03, 125.5 92.43, 23.25 93 M266.75 93 C183.64 94.51, 98.81 95.31, 23.25 93 M23.25 93 C7.24 93.56, -0.34 86.7, 0 69.75 M23.25 93 C7.74 91.36, 0.66 85.65, 0 69.75 M0 69.75 C1.71 60.65, -1 48.81, 0 23.25 M0 69.75 C-0.88 57.72, -1.15 46.48, 0 23.25 M0 23.25 C-1.75 6.11, 8.33 -0.78, 23.25 0 M0 23.25 C0.07 5.72, 8.73 -1.78, 23.25 0" stroke="#2f9e44" stroke-width="2" fill="none"></path></g><g transform="translate(1000.6313120524092 967.0250142415375) rotate(0 137.18182373046875 25)"><text x="137.18182373046875" y="0" font-family="Virgil, Segoe UI Emoji" font-size="20px" fill="#1e1e1e" text-anchor="middle" style="white-space: pre;" direction="ltr" dominant-baseline="text-before-edge">Créer un compte (email,mot </text><text x="137.18182373046875" y="25" font-family="Virgil, Segoe UI Emoji" font-size="20px" fill="#1e1e1e" text-anchor="middle" style="white-space: pre;" direction="ltr" dominant-baseline="text-before-edge">de passe)</text></g><g stroke-linecap="round" transform="translate(987.8131357828779 1058.5250142415375) rotate(0 145 46.5)"><path d="M23.25 0 C81.33 2.96, 141.05 1.49, 266.75 0 M23.25 0 C93.24 1.68, 162.43 1.86, 266.75 0 M266.75 0 C283.72 -0.06, 290.06 9.5, 290 23.25 M266.75 0 C282.26 -0.64, 288.3 8.86, 290 23.25 M290 23.25 C288.31 36.51, 290.21 47.58, 290 69.75 M290 23.25 C289.01 35.34, 290.36 48.9, 290 69.75 M290 69.75 C289.34 84.1, 282.89 92.91, 266.75 93 M290 69.75 C291.91 83.86, 282.91 93.89, 266.75 93 M266.75 93 C211.88 93.07, 158.5 94.74, 23.25 93 M266.75 93 C177.21 91.45, 88.43 90.72, 23.25 93 M23.25 93 C6.99 92.45, 1.37 83.41, 0 69.75 M23.25 93 C8.96 93.68, 1.83 84.35, 0 69.75 M0 69.75 C-1.09 52.62, -1.34 33.31, 0 23.25 M0 69.75 C-0.97 61.02, 0.38 49.73, 0 23.25 M0 23.25 C1.22 6.2, 7.34 -0.28, 23.25 0 M0 23.25 C-2.02 6.78, 9.72 -1.92, 23.25 0" stroke="#2f9e44" stroke-width="2" fill="none"></path></g><g transform="translate(1002.5404154459638 1067.5250142415375) rotate(0 130.27272033691406 37.5)"><text x="130.27272033691406" y="0" font-family="Virgil, Segoe UI Emoji" font-size="20px" fill="#1e1e1e" text-anchor="middle" style="white-space: pre;" direction="ltr" dominant-baseline="text-before-edge">Remplir son profil (nom, </text><text x="130.27272033691406" y="25" font-family="Virgil, Segoe UI Emoji" font-size="20px" fill="#1e1e1e" text-anchor="middle" style="white-space: pre;" direction="ltr" dominant-baseline="text-before-edge">prénom, gouts, style, age, </text><text x="130.27272033691406" y="50" font-family="Virgil, Segoe UI Emoji" font-size="20px" fill="#1e1e1e" text-anchor="middle" style="white-space: pre;" direction="ltr" dominant-baseline="text-before-edge">etc.)</text></g><g stroke-linecap="round" transform="translate(1380.813135782878 393.5250142415375) rotate(0 145 37.5)"><path d="M18.75 0 C91.79 0.35, 162.68 -0.59, 271.25 0 M18.75 0 C93.52 -1.7, 167.69 -1.48, 271.25 0 M271.25 0 C284.94 -1.5, 290.49 4.57, 290 18.75 M271.25 0 C284.98 -0.37, 290.73 6.17, 290 18.75 M290 18.75 C289.35 33.36, 290.68 45.08, 290 56.25 M290 18.75 C291.34 29.9, 289.71 40.49, 290 56.25 M290 56.25 C289.14 68.43, 285.56 74.82, 271.25 75 M290 56.25 C292.06 67.1, 283.17 74.16, 271.25 75 M271.25 75 C174.53 78, 81.4 76.56, 18.75 75 M271.25 75 C189.18 76.33, 108.4 76.42, 18.75 75 M18.75 75 C7.84 74.07, 0.58 67.28, 0 56.25 M18.75 75 C6.22 75.2, 0.87 70.41, 0 56.25 M0 56.25 C1.29 45.69, 1.96 33.12, 0 18.75 M0 56.25 C0.7 42.74, 0.43 29, 0 18.75 M0 18.75 C0.95 5.9, 4.29 -0.22, 18.75 0 M0 18.75 C-1.91 8, 7.72 0.66, 18.75 0" stroke="#1971c2" stroke-width="2" fill="none"></path></g><g transform="translate(1435.9722239176435 418.5250142415375) rotate(0 89.84091186523438 12.5)"><text x="89.84091186523438" y="0" font-family="Virgil, Segoe UI Emoji" font-size="20px" fill="#1e1e1e" text-anchor="middle" style="white-space: pre;" direction="ltr" dominant-baseline="text-before-edge">Partenaire : Zara</text></g><g stroke-linecap="round" transform="translate(981.8131357828779 1170.5250142415375) rotate(0 145 46.5)"><path d="M23.25 0 C78.99 -2.37, 137.76 -0.44, 266.75 0 M23.25 0 C119.95 -0.23, 217.55 0.31, 266.75 0 M266.75 0 C281.58 0.99, 289.18 5.9, 290 23.25 M266.75 0 C282.59 1.34, 289.04 5.47, 290 23.25 M290 23.25 C288.69 38.53, 288.25 55.69, 290 69.75 M290 23.25 C290.22 39.15, 288.93 55.35, 290 69.75 M290 69.75 C288.16 85.59, 283.34 94.42, 266.75 93 M290 69.75 C288.35 87.33, 280.19 91.5, 266.75 93 M266.75 93 C183.56 93.96, 99.44 95.25, 23.25 93 M266.75 93 C177.57 93.85, 88.88 93.9, 23.25 93 M23.25 93 C6.8 93.94, 0.32 85.27, 0 69.75 M23.25 93 C8.08 91.2, 2.08 85.75, 0 69.75 M0 69.75 C1.43 51.51, 1.53 35.38, 0 23.25 M0 69.75 C0.9 54.76, 0.64 37.67, 0 23.25 M0 23.25 C0.27 7.98, 9.32 -1.25, 23.25 0 M0 23.25 C2.27 7.54, 7.41 0.74, 23.25 0" stroke="#2f9e44" stroke-width="2" fill="none"></path></g><g transform="translate(994.7335917154951 1192.0250142415375) rotate(0 132.0795440673828 25)"><text x="132.0795440673828" y="0" font-family="Virgil, Segoe UI Emoji" font-size="20px" fill="#1e1e1e" text-anchor="middle" style="white-space: pre;" direction="ltr" dominant-baseline="text-before-edge">Rediriger vers le site d'un </text><text x="132.0795440673828" y="25" font-family="Virgil, Segoe UI Emoji" font-size="20px" fill="#1e1e1e" text-anchor="middle" style="white-space: pre;" direction="ltr" dominant-baseline="text-before-edge">partenaire</text></g><g stroke-linecap="round" transform="translate(978.8131357828779 1286.5250142415375) rotate(0 145 37.5)"><path d="M18.75 0 C99.08 1.41, 178.05 0.79, 271.25 0 M18.75 0 C76.57 -2.31, 132.45 -2.56, 271.25 0 M271.25 0 C284.99 -1.87, 289.74 5.9, 290 18.75 M271.25 0 C281.59 -1.47, 288.9 5.84, 290 18.75 M290 18.75 C288.67 31.79, 288.43 44.19, 290 56.25 M290 18.75 C289.72 31.28, 290.36 45.17, 290 56.25 M290 56.25 C289.11 67.26, 282.86 75.3, 271.25 75 M290 56.25 C291.14 68.6, 283.22 77, 271.25 75 M271.25 75 C174.58 75.45, 76.73 73.83, 18.75 75 M271.25 75 C193.87 73.85, 116.52 73.58, 18.75 75 M18.75 75 C4.4 74.95, 1.8 68.45, 0 56.25 M18.75 75 C5.34 76.17, 1.6 67.04, 0 56.25 M0 56.25 C-0.85 43.32, 0.55 32.16, 0 18.75 M0 56.25 C-0.74 43.07, -1.24 32.14, 0 18.75 M0 18.75 C1.57 4.7, 4.73 0.18, 18.75 0 M0 18.75 C0.32 5.64, 4.33 -1.28, 18.75 0" stroke="#2f9e44" stroke-width="2" fill="none"></path></g><g transform="translate(1039.2676798502607 1311.5250142415375) rotate(0 84.54545593261719 12.5)"><text x="84.54545593261719" y="0" font-family="Virgil, Segoe UI Emoji" font-size="20px" fill="#1e1e1e" text-anchor="middle" style="white-space: pre;" direction="ltr" dominant-baseline="text-before-edge">Visiter un produit</text></g><g stroke-linecap="round" transform="translate(1396.813135782878 507.0250142415375) rotate(0 137 39)"><path d="M19.5 0 C86.78 -0.38, 153.88 1, 254.5 0 M19.5 0 C91.59 -2.53, 162.09 -1.32, 254.5 0 M254.5 0 C268.29 -0.7, 275.73 5.68, 274 19.5 M254.5 0 C268.85 -0.84, 272.87 4.54, 274 19.5 M274 19.5 C275.23 34.64, 272.93 50.52, 274 58.5 M274 19.5 C274.06 34.45, 272.95 48.62, 274 58.5 M274 58.5 C274.25 70.9, 267.39 78.98, 254.5 78 M274 58.5 C275.49 73.57, 267.14 77.94, 254.5 78 M254.5 78 C202.58 79.44, 150.99 80.82, 19.5 78 M254.5 78 C185.69 77.66, 115.27 77.94, 19.5 78 M19.5 78 C8.13 77.43, -1.18 70.38, 0 58.5 M19.5 78 C5.33 75.94, -1.69 70.35, 0 58.5 M0 58.5 C-0.13 48.39, -0.47 38.35, 0 19.5 M0 58.5 C-0.9 42.87, 0.14 28.32, 0 19.5 M0 19.5 C0.46 5.45, 5.04 1.12, 19.5 0 M0 19.5 C-0.74 5.15, 4.68 1.44, 19.5 0" stroke="#f08c00" stroke-width="2" fill="none"></path></g><g transform="translate(1431.5517756144209 533.5250142415375) rotate(0 102.26136016845703 12.5)"><text x="102.26136016845703" y="0" font-family="Virgil, Segoe UI Emoji" font-size="20px" fill="#1e1e1e" text-anchor="middle" style="white-space: pre;" direction="ltr" dominant-baseline="text-before-edge">Ajouter des produits</text></g><g stroke-linecap="round" transform="translate(1370.813135782878 758.5250142415375) rotate(0 145 37.5)"><path d="M18.75 0 C95.93 -2.11, 174.54 -1.26, 271.25 0 M18.75 0 C90.28 -0.97, 161.4 -0.83, 271.25 0 M271.25 0 C282.47 -0.34, 290.23 5.01, 290 18.75 M271.25 0 C285.09 -0.53, 290.39 7.89, 290 18.75 M290 18.75 C291.34 32.35, 291.18 48.78, 290 56.25 M290 18.75 C289.89 29.5, 289.17 39.34, 290 56.25 M290 56.25 C289.61 70.2, 283.76 74.69, 271.25 75 M290 56.25 C288.16 67.83, 282.8 75.61, 271.25 75 M271.25 75 C175.75 75.24, 80.1 75.44, 18.75 75 M271.25 75 C206.45 76.83, 140.49 77.32, 18.75 75 M18.75 75 C7.79 74.08, -0.21 67.89, 0 56.25 M18.75 75 C7.74 76.08, 2.17 66.76, 0 56.25 M0 56.25 C1.63 42.38, 1.78 25.52, 0 18.75 M0 56.25 C-0.44 44.49, -0.64 35.2, 0 18.75 M0 18.75 C-1.56 4.85, 4.47 -0.37, 18.75 0 M0 18.75 C2.11 7.52, 4.45 -2.08, 18.75 0" stroke="#2f9e44" stroke-width="2" fill="none"></path></g><g transform="translate(1392.324495951335 783.5250142415375) rotate(0 123.48863983154297 12.5)"><text x="123.48863983154297" y="0" font-family="Virgil, Segoe UI Emoji" font-size="20px" fill="#1e1e1e" text-anchor="middle" style="white-space: pre;" direction="ltr" dominant-baseline="text-before-edge">Ajouter une fiche produit</text></g><g stroke-linecap="round" transform="translate(634.8131357828779 576.0250142415375) rotate(0 137 39)"><path d="M19.5 0 C90.31 -0.48, 159.73 -2.02, 254.5 0 M19.5 0 C99.72 0.09, 179.44 -0.09, 254.5 0 M254.5 0 C267.69 1.06, 272.81 6.3, 274 19.5 M254.5 0 C267.65 -0.09, 274.49 5.98, 274 19.5 M274 19.5 C274.69 28.61, 274.02 37.52, 274 58.5 M274 19.5 C273.98 33.48, 274.11 47.64, 274 58.5 M274 58.5 C275.81 71.18, 267.18 79.03, 254.5 78 M274 58.5 C272.82 72.18, 268.38 76.09, 254.5 78 M254.5 78 C199.29 76.6, 143.82 79.74, 19.5 78 M254.5 78 C163.65 78.61, 74.38 79.14, 19.5 78 M19.5 78 C7.31 77.6, 1.27 72.49, 0 58.5 M19.5 78 C6.84 76.32, 1.95 69.44, 0 58.5 M0 58.5 C-1.86 48.33, 0 35.93, 0 19.5 M0 58.5 C0.7 44.2, -0.9 28.61, 0 19.5 M0 19.5 C1.55 5.29, 8.41 0.85, 19.5 0 M0 19.5 C1.23 5.95, 5.8 -1.31, 19.5 0" stroke="#f08c00" stroke-width="2" fill="none"></path></g><g transform="translate(669.5517756144209 602.5250142415375) rotate(0 102.26136016845703 12.5)"><text x="102.26136016845703" y="0" font-family="Virgil, Segoe UI Emoji" font-size="20px" fill="#1e1e1e" text-anchor="middle" style="white-space: pre;" direction="ltr" dominant-baseline="text-before-edge">Ajouter des produits</text></g><g stroke-linecap="round" transform="translate(978.8131357828779 1385.5250142415375) rotate(0 145 37.5)"><path d="M18.75 0 C91.62 -0.29, 165.49 -2, 271.25 0 M18.75 0 C96.65 -0.96, 173.98 -0.66, 271.25 0 M271.25 0 C285.38 -1.42, 289.03 5.15, 290 18.75 M271.25 0 C283.19 0.36, 291.57 7.46, 290 18.75 M290 18.75 C291 30.31, 289.58 41.92, 290 56.25 M290 18.75 C291.01 26.3, 289.2 34.73, 290 56.25 M290 56.25 C291.34 68.06, 283.26 74.68, 271.25 75 M290 56.25 C288.05 70.08, 285.76 76.16, 271.25 75 M271.25 75 C180.78 75.72, 92.2 75.38, 18.75 75 M271.25 75 C170.35 75.82, 69.76 75.66, 18.75 75 M18.75 75 C6.31 74.44, 1.77 67.26, 0 56.25 M18.75 75 C8.26 75.26, -0.5 69.86, 0 56.25 M0 56.25 C0.43 47.45, 2.14 35.87, 0 18.75 M0 56.25 C-1.11 45.99, -0.97 35.76, 0 18.75 M0 18.75 C1.47 5.44, 7.61 -1.05, 18.75 0 M0 18.75 C2.13 8.3, 6.2 -0.85, 18.75 0" stroke="#2f9e44" stroke-width="2" fill="none"></path></g><g transform="translate(1033.199495951335 1410.5250142415375) rotate(0 90.61363983154297 12.5)"><text x="90.61363983154297" y="0" font-family="Virgil, Segoe UI Emoji" font-size="20px" fill="#1e1e1e" text-anchor="middle" style="white-space: pre;" direction="ltr" dominant-baseline="text-before-edge">Ajouter un produit</text></g><g stroke-linecap="round" transform="translate(967.8131357828779 1489.5250142415375) rotate(0 58.5 35.5)"><path d="M17.75 0 C40.01 -1.84, 60.95 -0.87, 99.25 0 M17.75 0 C36.23 -0.79, 52.4 -0.01, 99.25 0 M99.25 0 C110.6 1.63, 116.03 5.72, 117 17.75 M99.25 0 C113.26 -0.3, 115.68 6.5, 117 17.75 M117 17.75 C117.71 29.5, 118.57 39.67, 117 53.25 M117 17.75 C116.93 29.47, 116.53 40.19, 117 53.25 M117 53.25 C115.96 66.32, 109.68 70.4, 99.25 71 M117 53.25 C115.41 66.98, 111.07 72.73, 99.25 71 M99.25 71 C71.34 72.41, 46.35 72.27, 17.75 71 M99.25 71 C72.09 70.85, 45.58 71.22, 17.75 71 M17.75 71 C6.42 72.92, 0.87 65.25, 0 53.25 M17.75 71 C6.2 71.91, -0.39 65.03, 0 53.25 M0 53.25 C-2.06 46.13, 0.42 36.08, 0 17.75 M0 53.25 C0.47 44.23, 0.41 37.37, 0 17.75 M0 17.75 C-1.56 6.94, 6.44 -1.72, 17.75 0 M0 17.75 C-1.83 7.73, 4.86 2.1, 17.75 0" stroke="#2f9e44" stroke-width="2" fill="none"></path></g><g transform="translate(978.5404078165693 1500.0250142415375) rotate(0 47.772727966308594 25)"><text x="47.772727966308594" y="0" font-family="Virgil, Segoe UI Emoji" font-size="20px" fill="#1e1e1e" text-anchor="middle" style="white-space: pre;" direction="ltr" dominant-baseline="text-before-edge">Payer en </text><text x="47.772727966308594" y="25" font-family="Virgil, Segoe UI Emoji" font-size="20px" fill="#1e1e1e" text-anchor="middle" style="white-space: pre;" direction="ltr" dominant-baseline="text-before-edge">CB</text></g><g stroke-linecap="round" transform="translate(1095.813135782878 1485.5250142415375) rotate(0 62 38.5)"><path d="M19.25 0 C37.65 -2.42, 58.9 -0.58, 104.75 0 M19.25 0 C48 -0.94, 74.48 0.17, 104.75 0 M104.75 0 C116.13 1.12, 124.84 5.25, 124 19.25 M104.75 0 C115.99 -1.5, 124.54 6.8, 124 19.25 M124 19.25 C122.05 30.97, 123.03 43.15, 124 57.75 M124 19.25 C125.2 33.72, 124.07 47.38, 124 57.75 M124 57.75 C125.14 68.97, 116.98 77.96, 104.75 77 M124 57.75 C123 70.24, 119.36 79.2, 104.75 77 M104.75 77 C73.31 79.04, 37.99 75.58, 19.25 77 M104.75 77 C74.5 77.81, 45.53 75.93, 19.25 77 M19.25 77 C8.12 78.93, 1.42 69.57, 0 57.75 M19.25 77 C6.36 77.3, -0.83 69.04, 0 57.75 M0 57.75 C1.08 46.93, 0.99 37.19, 0 19.25 M0 57.75 C-1.06 47.4, -0.58 37.71, 0 19.25 M0 19.25 C-1.43 6.82, 7.58 -0.62, 19.25 0 M0 19.25 C0.8 7.96, 6.4 -1.58, 19.25 0" stroke="#2f9e44" stroke-width="2" fill="none"></path></g><g transform="translate(1125.1426798502607 1499.0250142415375) rotate(0 32.67045593261719 25)"><text x="32.67045593261719" y="0" font-family="Virgil, Segoe UI Emoji" font-size="20px" fill="#1e1e1e" text-anchor="middle" style="white-space: pre;" direction="ltr" dominant-baseline="text-before-edge">Payer </text><text x="32.67045593261719" y="25" font-family="Virgil, Segoe UI Emoji" font-size="20px" fill="#1e1e1e" text-anchor="middle" style="white-space: pre;" direction="ltr" dominant-baseline="text-before-edge">Paypal</text></g><g stroke-linecap="round" transform="translate(1232.813135782878 1486.5250142415375) rotate(0 62 38.5)"><path d="M19.25 0 C38.08 1.21, 61.89 -0.42, 104.75 0 M19.25 0 C36.73 0.88, 55.93 0.39, 104.75 0 M104.75 0 C116.47 0.73, 125.95 6.93, 124 19.25 M104.75 0 C116.52 -1.2, 125.93 4.6, 124 19.25 M124 19.25 C125.51 31.13, 123.78 43.37, 124 57.75 M124 19.25 C123.58 27.55, 123.88 35.65, 124 57.75 M124 57.75 C123.17 69.27, 116.4 77.5, 104.75 77 M124 57.75 C124.71 70.65, 119 77.91, 104.75 77 M104.75 77 C74.36 76.41, 47.54 75.56, 19.25 77 M104.75 77 C71.3 76.83, 39.38 77.12, 19.25 77 M19.25 77 C5.52 75.09, -1.64 69.65, 0 57.75 M19.25 77 C4.23 74.77, 0.4 72.25, 0 57.75 M0 57.75 C-1.02 48.59, -0.03 39.49, 0 19.25 M0 57.75 C0.55 44.31, 0.23 31.06, 0 19.25 M0 19.25 C0.03 4.67, 7.89 -0.26, 19.25 0 M0 19.25 C1.58 7.96, 5.54 -2, 19.25 0" stroke="#2f9e44" stroke-width="2" fill="none"></path></g><g transform="translate(1247.0404078165693 1500.0250142415375) rotate(0 47.772727966308594 25)"><text x="47.772727966308594" y="0" font-family="Virgil, Segoe UI Emoji" font-size="20px" fill="#1e1e1e" text-anchor="middle" style="white-space: pre;" direction="ltr" dominant-baseline="text-before-edge">Payer en </text><text x="47.772727966308594" y="25" font-family="Virgil, Segoe UI Emoji" font-size="20px" fill="#1e1e1e" text-anchor="middle" style="white-space: pre;" direction="ltr" dominant-baseline="text-before-edge">magasin</text></g><g stroke-linecap="round" transform="translate(963.3131357828779 1573.5250142415375) rotate(0 58.5 35.5)"><path d="M17.75 0 C47.8 2.02, 76.22 0.55, 99.25 0 M17.75 0 C38.71 -1.32, 59.63 -0.37, 99.25 0 M99.25 0 C112.67 -1.77, 118.52 5, 117 17.75 M99.25 0 C109.93 1.14, 117.23 4.76, 117 17.75 M117 17.75 C117.7 26.71, 118.67 32.42, 117 53.25 M117 17.75 C117.65 27.1, 116.81 36.94, 117 53.25 M117 53.25 C115.16 65.47, 111.91 72, 99.25 71 M117 53.25 C114.97 65.63, 110.1 70.49, 99.25 71 M99.25 71 C75.05 71.61, 49.33 69.59, 17.75 71 M99.25 71 C82 70.4, 65.32 69.58, 17.75 71 M17.75 71 C6.47 71.22, 0.51 63.21, 0 53.25 M17.75 71 C7.92 71.88, -0.25 65.63, 0 53.25 M0 53.25 C1.8 47.74, -0.48 39.36, 0 17.75 M0 53.25 C-0.21 41.83, -0.46 29.06, 0 17.75 M0 17.75 C0.76 5.58, 4.42 0.24, 17.75 0 M0 17.75 C-1.35 6.08, 6.03 1.29, 17.75 0" stroke="#2f9e44" stroke-width="2" fill="none"></path></g><g transform="translate(968.6881357828779 1584.0250142415375) rotate(0 53.125 25)"><text x="53.125" y="0" font-family="Virgil, Segoe UI Emoji" font-size="20px" fill="#1e1e1e" text-anchor="middle" style="white-space: pre;" direction="ltr" dominant-baseline="text-before-edge">Livraison à</text><text x="53.125" y="25" font-family="Virgil, Segoe UI Emoji" font-size="20px" fill="#1e1e1e" text-anchor="middle" style="white-space: pre;" direction="ltr" dominant-baseline="text-before-edge">domicile</text></g><g stroke-linecap="round" transform="translate(1104.313135782878 1577.5250142415375) rotate(0 58.5 35.5)"><path d="M17.75 0 C43.94 -1.01, 66.28 -1.75, 99.25 0 M17.75 0 C39.22 0.58, 59.62 1.51, 99.25 0 M99.25 0 C110.2 1.18, 116.37 5.88, 117 17.75 M99.25 0 C112.72 1.24, 117.93 3.82, 117 17.75 M117 17.75 C115.78 26.01, 117.56 35.65, 117 53.25 M117 17.75 C117.06 30.19, 116.52 43.66, 117 53.25 M117 53.25 C115.08 64.15, 111.39 69.84, 99.25 71 M117 53.25 C117.73 66.36, 111.72 69.02, 99.25 71 M99.25 71 C69.14 73.15, 37.32 70.76, 17.75 71 M99.25 71 C80.84 71.18, 61.16 70.1, 17.75 71 M17.75 71 C7.36 71.85, 0.34 65.06, 0 53.25 M17.75 71 C6.45 71.61, -1 67.11, 0 53.25 M0 53.25 C-1.14 44.51, -0.04 34.13, 0 17.75 M0 53.25 C0.2 44.28, 0.84 37.2, 0 17.75 M0 17.75 C-0.81 6.22, 5.49 -1.74, 17.75 0 M0 17.75 C-0.3 6.69, 4.43 2.05, 17.75 0" stroke="#2f9e44" stroke-width="2" fill="none"></path></g><g transform="translate(1110.813135782878 1588.0250142415375) rotate(0 52 25)"><text x="52" y="0" font-family="Virgil, Segoe UI Emoji" font-size="20px" fill="#1e1e1e" text-anchor="middle" style="white-space: pre;" direction="ltr" dominant-baseline="text-before-edge">Livraison </text><text x="52" y="25" font-family="Virgil, Segoe UI Emoji" font-size="20px" fill="#1e1e1e" text-anchor="middle" style="white-space: pre;" direction="ltr" dominant-baseline="text-before-edge">en magasin</text></g><g stroke-linecap="round" transform="translate(567.8131357828779 1424.5250142415375) rotate(0 145 37.5)"><path d="M18.75 0 C93.64 0.21, 165.16 -0.02, 271.25 0 M18.75 0 C81.73 0.67, 143.97 1.27, 271.25 0 M271.25 0 C284.56 1.96, 291.44 5.4, 290 18.75 M271.25 0 C283.11 0.64, 290.21 4.24, 290 18.75 M290 18.75 C290.75 28.34, 291.82 38.78, 290 56.25 M290 18.75 C291.01 32.77, 289.03 48.03, 290 56.25 M290 56.25 C290.72 68.54, 285.34 75.48, 271.25 75 M290 56.25 C290.28 68.8, 285.49 76.57, 271.25 75 M271.25 75 C187.47 74.25, 106.61 73.96, 18.75 75 M271.25 75 C201.54 72.75, 132.73 74.04, 18.75 75 M18.75 75 C6.83 75.32, -0.19 69.91, 0 56.25 M18.75 75 C6.51 74.96, -2.01 69.13, 0 56.25 M0 56.25 C-1.54 44.94, -0.34 31.77, 0 18.75 M0 56.25 C0.21 45.51, -0.07 35.79, 0 18.75 M0 18.75 C1.09 6.62, 6.88 1.99, 18.75 0 M0 18.75 C1.29 8.24, 4.79 2.04, 18.75 0" stroke="#2f9e44" stroke-width="2" fill="none"></path></g><g transform="translate(579.7335917154951 1449.5250142415375) rotate(0 133.0795440673828 12.5)"><text x="133.0795440673828" y="0" font-family="Virgil, Segoe UI Emoji" font-size="20px" fill="#1e1e1e" text-anchor="middle" style="white-space: pre;" direction="ltr" dominant-baseline="text-before-edge">S'abonner aux notifications</text></g><g stroke-linecap="round" transform="translate(1741.813135782878 507.0250142415375) rotate(0 137 39)"><path d="M19.5 0 C104.91 -0.55, 190.59 -0.9, 254.5 0 M19.5 0 C111.56 1.52, 203.82 0.7, 254.5 0 M254.5 0 C265.92 0.26, 272.12 4.51, 274 19.5 M254.5 0 C267.81 -1.01, 276.06 4.59, 274 19.5 M274 19.5 C272.65 34.55, 275.48 48.62, 274 58.5 M274 19.5 C273.16 31.11, 274.56 43.2, 274 58.5 M274 58.5 C274.73 73.34, 269.32 79.05, 254.5 78 M274 58.5 C271.86 70.14, 269.29 77.58, 254.5 78 M254.5 78 C195.7 78.2, 138.99 77.56, 19.5 78 M254.5 78 C172.97 79.54, 89.89 80.04, 19.5 78 M19.5 78 C6.36 76.18, 1.21 71.06, 0 58.5 M19.5 78 C6.92 76.22, -2.25 72.89, 0 58.5 M0 58.5 C0.24 47.17, 0.98 36.27, 0 19.5 M0 58.5 C-0.87 45.67, 0.92 32.6, 0 19.5 M0 19.5 C0.54 6.34, 6.6 0.2, 19.5 0 M0 19.5 C-1.72 4.36, 5.53 2.29, 19.5 0" stroke="#f08c00" stroke-width="2" fill="none"></path></g><g transform="translate(1791.4267756144209 533.5250142415375) rotate(0 87.38636016845703 12.5)"><text x="87.38636016845703" y="0" font-family="Virgil, Segoe UI Emoji" font-size="20px" fill="#1e1e1e" text-anchor="middle" style="white-space: pre;" direction="ltr" dominant-baseline="text-before-edge">Analyser les KPIs</text></g><g stroke-linecap="round" transform="translate(1746.813135782878 617.0250142415375) rotate(0 137 39)"><path d="M19.5 0 C106.96 -0.59, 198.34 -0.6, 254.5 0 M19.5 0 C83.67 0.68, 147.17 1.51, 254.5 0 M254.5 0 C266.13 1.5, 272.45 5.32, 274 19.5 M254.5 0 C269.59 -0.64, 276.09 7.66, 274 19.5 M274 19.5 C276.11 31.91, 274.45 42.22, 274 58.5 M274 19.5 C273.04 31.02, 273.06 41.72, 274 58.5 M274 58.5 C275.77 72.35, 265.73 76.15, 254.5 78 M274 58.5 C272.73 73.5, 266.85 79.6, 254.5 78 M254.5 78 C166.46 80.53, 81.83 79.51, 19.5 78 M254.5 78 C194.62 78.63, 134.46 79.2, 19.5 78 M19.5 78 C7.84 77.53, -0.57 73.45, 0 58.5 M19.5 78 C6.58 77.47, -0.7 69.54, 0 58.5 M0 58.5 C-0.71 44.81, 1.13 32.98, 0 19.5 M0 58.5 C0.87 43.87, 0.52 28.48, 0 19.5 M0 19.5 C-1.41 8.25, 7.52 1.9, 19.5 0 M0 19.5 C-1.52 8.04, 4.2 -1.79, 19.5 0" stroke="#f08c00" stroke-width="2" fill="none"></path></g><g transform="translate(1800.3699518839521 643.5250142415375) rotate(0 83.44318389892578 12.5)"><text x="83.44318389892578" y="0" font-family="Virgil, Segoe UI Emoji" font-size="20px" fill="#1e1e1e" text-anchor="middle" style="white-space: pre;" direction="ltr" dominant-baseline="text-before-edge">Ajouter les KPIs</text></g></svg>